<svg xmlns="http://www.w3.org/2000/svg" width="647.899" height="266.988" overflow="visible"><path fill-rule="evenodd" clip-rule="evenodd" fill="#8D777E" d="M581.024 252.163a1.893 1.893 0 001.047-2.463l-34.352-85.046a1.893 1.893 0 00-3.51 1.417l34.352 85.046a1.892 1.892 0 002.463 1.046z"/><ellipse fill="#E8E8E8" cx="468.539" cy="258.514" rx="150.687" ry="8.474"/><path fill-rule="evenodd" clip-rule="evenodd" fill="#8D777E" d="M514.389 206.018h-30.24a1.503 1.503 0 01-1.499-1.498c0-.824.674-1.498 1.499-1.498h30.24c.824 0 1.498.674 1.498 1.498s-.675 1.498-1.498 1.498zm-5.556 46.145a1.892 1.892 0 01-1.046-2.463l34.352-85.046a1.892 1.892 0 113.509 1.417l-34.351 85.046a1.893 1.893 0 01-2.464 1.046z"/><path fill-rule="evenodd" clip-rule="evenodd" fill="#8D777E" d="M535.338 252.163a1.892 1.892 0 001.046-2.463l-34.352-85.046a1.893 1.893 0 00-3.509 1.417l34.352 85.046a1.893 1.893 0 002.463 1.046zm26.303-46.145h-32.395a1.502 1.502 0 01-1.498-1.498c0-.824.674-1.498 1.498-1.498h32.395c.824 0 1.498.674 1.498 1.498s-.674 1.498-1.498 1.498z"/><path fill-rule="evenodd" clip-rule="evenodd" fill="#F6AD36" d="M496.735 65.258s-8.449 13.81-10.007 38.597c0 0 6.116-.58 6.098-1.459-.018-.879 3.909-37.138 3.909-37.138z"/><path fill-rule="evenodd" clip-rule="evenodd" fill="#8D777E" d="M606.975 255.221c-1.39.524-2.957-.134-3.502-1.47l-47.841-117.267c-.545-1.336.14-2.845 1.528-3.369 1.389-.524 2.957.134 3.502 1.47l47.84 117.267c.545 1.336-.138 2.844-1.527 3.369z"/><path fill-rule="evenodd" clip-rule="evenodd" fill="#EC6C6C" d="M439.196 248.625l-12.39-.893 4.099-14.265 11.865.855zm55.677-.108l-13.264-.955 1.669-13.665 13.264.957z"/><path fill-rule="evenodd" clip-rule="evenodd" fill="#43383C" d="M409.679 257.078c-.038.51.138.992.49 1.337.351.345 4.428.904 4.958.876 5.034-.258 14.677-1.317 21.346-1.659a4.342 4.342 0 002.812-1.268c.759-.757 1.196-1.747 1.211-2.745l.135-8.9-12.679-1.239s-10.419 6.962-15.662 9.415c-2.198 1.027-2.442 1.915-2.611 4.183z"/><path fill-rule="evenodd" clip-rule="evenodd" fill="#8D777E" d="M461.141 257.13a1.892 1.892 0 01-1.046-2.463l36.358-90.014a1.893 1.893 0 013.509 1.417l-36.358 90.014a1.892 1.892 0 01-2.463 1.046z"/><path fill-rule="evenodd" clip-rule="evenodd" fill="#8D777E" d="M463.402 258.41c-1.39.521-3.023-.302-3.647-1.84l-54.79-134.976c-.625-1.538-.004-3.208 1.386-3.729 1.39-.522 3.023.302 3.647 1.84l54.791 134.976c.624 1.538.003 3.208-1.387 3.729z"/><path fill-rule="evenodd" clip-rule="evenodd" fill="#715F65" d="M549.22 169.742h-71.669a8.156 8.156 0 01-8.156-8.156v-.453a8.157 8.157 0 018.156-8.156h71.669a8.155 8.155 0 018.155 8.156v.453a8.155 8.155 0 01-8.155 8.156z"/><path fill-rule="evenodd" clip-rule="evenodd" fill="#F7C5C9" d="M500.129 117.242s-7.817 22.457-7.277 26.833c1.012 8.201 5.487 14.013 5.487 14.013l38.356-.302c10.95-.086 19.211-9.974 17.355-20.767l-.026-.154a87.188 87.188 0 01-.476-3.101l-2.629-19.424c-11.915 7.724-33.503 10.904-52.421 5.8l1.631-2.898z"/><path fill-rule="evenodd" clip-rule="evenodd" fill="#F6AD36" d="M468.579 118.783l14.107-12.359 10.674-13.365 6.326 14.97c-6.282 9.415-15.025 16.978-28.784 20.771l-1.675-5.02-.648-4.997z"/><path fill-rule="evenodd" clip-rule="evenodd" fill="#F7C5C9" d="M428.219 237.768c.005-2.154 12.293-48.947 19.229-68.623a22.15 22.15 0 0111.043-12.477l41.195-20.455 26.916 22.863-56.649 23.378c-2.202 14.858-12.686 36.359-24.653 56.75l-17.081-1.436z"/><path fill-rule="evenodd" clip-rule="evenodd" fill="#DBAFB2" d="M438.401 238.625c1.647-13.634 12.275-25.826 17.07-32.607 6.096-8.62 2.376-22.975 4.911-30.163.719-2.04 2.732-4.688 5.24-7.335 5.56-5.872 12.703-9.958 20.461-12.241 10.5-3.09 16.723-7.523 23.269-11.854l17.25 14.653-56.649 23.378c-2.202 14.858-12.686 36.359-24.653 56.75l-6.899-.581z"/><path fill-rule="evenodd" clip-rule="evenodd" fill="#715F65" d="M321.946 258.03c-1.384-.537-2.032-2.103-1.447-3.497l51.307-122.408c.584-1.395 2.18-2.09 3.564-1.554 1.384.537 2.032 2.103 1.447 3.498L325.51 256.477c-.584 1.394-2.18 2.089-3.564 1.553z"/><path fill-rule="evenodd" clip-rule="evenodd" fill="#43383C" d="M464.556 259.255c-.038.51.138.992.489 1.337.352.345 4.428.904 4.958.876 5.034-.258 14.677-1.317 21.346-1.66a4.334 4.334 0 002.812-1.268c.759-.756 1.196-1.747 1.211-2.745l.134-8.899-14.089-.309s-9.008 6.032-14.251 8.484c-2.197 1.029-2.441 1.916-2.61 4.184zm45.85-239.294s-9.07 4.099-1.967 12.548c7.103 8.45 1.967-12.548 1.967-12.548z"/><path fill-rule="evenodd" clip-rule="evenodd" fill="#F6AD36" d="M541.114 59.731s-.09-5.104-5.149-7.606c-2.425-1.199-6.294-2.167-11.299-.997-9.998 2.338-13.362 3.862-13.362 3.862l-3.77 12.473 12.593 5.988 24.801-18.565-3.814 4.845z"/><path fill-rule="evenodd" clip-rule="evenodd" fill="#EC6C6C" d="M508.729 27.192a11.006 11.006 0 0112.076-10.504h.001a11.063 11.063 0 019.965 11.458l-.417 10.253a7.86 7.86 0 01-8.623 7.501l-6.081-.601a8.12 8.12 0 01-7.316-8.411l.395-9.696z"/><path fill-rule="evenodd" clip-rule="evenodd" fill="#EC6C6C" d="M536.217 58.541l-7.906-20.523-14.378 6.411 3.989 19.77 18.295-5.658z"/><path fill-rule="evenodd" clip-rule="evenodd" fill="#43383C" d="M524.42 25.892s-1.408 10.056 6.486 10.287c0 0 4.015-9.064 4.475-13.716.857-8.65-16.463-10.374-23.478-6.692-7.013 3.681-2.713 10.326 12.517 10.121z"/><path fill-rule="evenodd" clip-rule="evenodd" fill="#FFF" d="M516.041 54.874c4.77 7.196 16.182.673 18.042-1.872.295-.403 5.329 2.541 5.979 2.99 10.032 6.921 11.338 36.632 13.129 47.342.832 4.979 5.507 21.735 3.014 26.082-.824 1.438-8.654.336-10.197.611-6.539 1.165-35.859 3.441-39.885-1.05-3.999-4.46-1.001-12.765-1.773-18.042-4.06-27.732 3.705-51.794 3.705-51.794l7.986-4.267z"/><path fill-rule="evenodd" clip-rule="evenodd" fill="#E8E8E8" d="M505.197 94.007c5.687 15.17 48.069-1.113 43.25-8.397-6.723-10.166 2.953 7.015 4.744 17.724.832 4.979 5.507 21.735 3.014 26.082-.824 1.438-4.168 13.071-5.734 13.128-20.746.749-52.655 1.926-54.09-3.933-2.022-8.254 7.287-22.386 7.968-27.676 1.766-13.721.848-16.928.848-16.928z"/><path fill-rule="evenodd" clip-rule="evenodd" fill="#EC6C6C" d="M530.737 31.977c-1.433-.365-2.974.824-3.439 2.652-.467 1.829.318 3.61 1.75 3.976 1.434.365 2.975-.824 3.44-2.653.466-1.828-.319-3.61-1.751-3.975z"/><path fill-rule="evenodd" clip-rule="evenodd" fill="#43383C" d="M508.304 36.899c-.512-.902-2.667 13.549 6.02 14.282 8.686.733 12.334-2.809 12.924-19.406 0 0-3.484 10.084-8.559 10.237-10.6.321-9.771-4.033-10.385-5.113z"/><path fill-rule="evenodd" clip-rule="evenodd" fill="#F7C5C9" d="M544.732 155.799l-4.366-6.679-29.413-2.108-21.729 10.32a18.636 18.636 0 00-10.64 16.983l.146 18.155.042-.023-1.171 50.297 19.304-.54c6.094-24.184 8.49-44.75 6.584-63.491l41.243-22.914z"/><path fill-rule="evenodd" clip-rule="evenodd" fill="#F6AD36" d="M511.304 54.99s-5.319 27.069-5.451 43.371c-.132 16.302-7.399 49.533-7.399 49.533-2.622-4.869-11.925-3.407-12.759-7.849 0 0 8.148-53.622 9.585-67.681 1.404-13.739 6.712-13.641 16.024-17.374z"/><path fill-rule="evenodd" clip-rule="evenodd" fill="#43383C" d="M518.772 25.576S499.53 24.066 504 15.536c4.134-7.891 17.604 8.728 20.435 5.695l-5.663 4.345z"/><path fill-rule="evenodd" clip-rule="evenodd" fill="#EC6C6C" d="M495.279 122.333s-4.862-3.327-7.967-1.712c-1.48.77-3.941.811-6.151 2.039-2.429 1.35-5.051 5.065-5.051 5.065s-.011 3.441 3.052 4.039c1.095.214 4.372-2.709 4.372-2.709 2.959 1.058 6.496 1.036 10.504.13l1.241-6.852zm-22.634-.276s-4.605-3.675-7.821-2.292c-1.532.659-3.99.519-6.284 1.582-2.521 1.167-5.409 4.681-5.409 4.681s-.264 3.431 2.748 4.252c1.076.293 4.559-2.381 4.559-2.381 2.874 1.271 6.402 1.509 10.466.9l1.741-6.742z"/><path fill-rule="evenodd" clip-rule="evenodd" fill="#EC6C6C" d="M495.279 122.333l15.419-1.134.606 8.223-19.308-1.066z"/><path fill-rule="evenodd" clip-rule="evenodd" fill="#FFF" d="M450.664 126.956h50.478v3.205h-50.478z"/><path fill-rule="evenodd" clip-rule="evenodd" fill="#F6AD36" d="M563.715 109.706c-.179-7.498-.763-16.396-2.189-25.53-1.672-10.707-3.831-18.739-7.589-23.175-3.294-3.891-6.436-4.485-10.63-6.553l-7.343-2.323c-4.491 20.881-7.588 40.805-5.644 61.483l-24.522 4.864.054 11.688h37.865l7.55-2.454 7.175-4.012a19.881 19.881 0 005.273-13.988z"/><path fill-rule="evenodd" clip-rule="evenodd" fill="#FFF" d="M463.518 130.161H405.59l-17.479-38.953h56.602c.807 0 1.54.474 1.87 1.21l16.935 37.743z"/><path fill-rule="evenodd" clip-rule="evenodd" fill="#43383C" d="M461.27 130.161h-57.928L386.668 93a1.272 1.272 0 011.161-1.792h55.14c.501 0 .955.294 1.16.751l17.141 38.202z"/><path fill-rule="evenodd" clip-rule="evenodd" fill="#F6AD36" d="M529.725 104.902s-.491 20.724-5.271 30.249c-2.113 4.21-13.15 15.434-13.15 15.434s42.337 4.188 43.687-12.89c1.408-17.834 5.467-36.966 5.467-36.966l-30.733 4.173z"/><path fill-rule="evenodd" clip-rule="evenodd" fill="#FFF" d="M425.672 110.93c.689 2.429-1.191 4.399-4.199 4.399s-6.005-1.97-6.694-4.399c-.689-2.43 1.191-4.399 4.199-4.399 3.008-.001 6.005 1.969 6.694 4.399z"/><path fill-rule="evenodd" clip-rule="evenodd" fill="#715F65" d="M473.218 266.814c-1.384-.536-2.011-2.154-1.4-3.615l53.634-128.171c.61-1.46 2.229-2.21 3.612-1.674 1.385.536 2.012 2.154 1.4 3.614L476.831 265.14c-.611 1.461-2.229 2.21-3.613 1.674z"/><path fill-rule="evenodd" clip-rule="evenodd" fill="#F6AD36" d="M563.715 109.706c-.179-7.498-.763-16.396-2.189-25.53-1.672-10.707-3.831-18.739-7.589-23.175-3.294-3.891-6.436-4.485-10.63-6.553l-7.343-2.323c28.126 14.406 19.021 45.238 20.966 65.917-4.522 2.407-6.658 1.637-17.182 3.741-5.622 1.713-11.128 4.195-19.582 5.69-6.35-1.345-9.917-1.78-14.314-.517v3.205h37.865l7.55-2.454 7.175-4.012a19.885 19.885 0 005.273-13.989z"/><path fill-rule="evenodd" clip-rule="evenodd" fill="#F6AD36" d="M529.561 113.799s12.196-4.254 16.873-4.254c0 0-14.188-.39-16.747.195l-.126 4.059z"/><path fill-rule="evenodd" clip-rule="evenodd" fill="#43383C" d="M570.417 136.213H361.492a3.035 3.035 0 01-3.026-3.026 3.035 3.035 0 013.026-3.026h208.925a3.035 3.035 0 013.026 3.026 3.035 3.035 0 01-3.026 3.026z"/><path fill-rule="evenodd" clip-rule="evenodd" fill="#EC6C6C" d="M515.268 103.582l6.988-2.099-3.401-7.189s-11.035-4.948-12.748-1.571c-1.713 3.377-.248 11.848 4.456 11.353l4.705-.494z"/><path fill-rule="evenodd" clip-rule="evenodd" fill="#EC6C6C" d="M511.776 96.458l-9.986-.512a1.988 1.988 0 01-1.879-2.083 1.99 1.99 0 012.083-1.88l9.986.512a1.99 1.99 0 011.88 2.083 1.992 1.992 0 01-2.084 1.88zm116.197-10.977c-.965 7.269 10.35 21.982 9.545 37.426l6.698-.06s1.724-31.164-9.218-46.402c-1.849 3.943-4.076 7.17-7.025 9.036zm-18.51 148.831l7.874-.183.3 12.897-7.873.183zm-32.671-.892l8.154-.191.332 14.11-8.154.192z"/><path fill-rule="evenodd" clip-rule="evenodd" fill="#715F65" d="M610.705 96.373l-35.06 1.462c-9.693 17.813-8.229 39.381-8.229 39.381s-.621 43.21-.133 45.01l8.449 54.88 11.891-1.727c-.866-21.171-.278-30.859-1.801-45.388l7.677-50.934c11.941-.247 26.065 9.015 27.551-10.662 1.699-22.493-10.345-32.022-10.345-32.022z"/><path fill-rule="evenodd" clip-rule="evenodd" fill="#715F65" d="M591.217 102.063l7.75 77.654 6.828 58.105 13.078.539c1.881-22.855 4.121-36.393-1.627-52.955l3.824-57.301-16.51-21.406-13.343-4.636z"/><path fill-rule="evenodd" clip-rule="evenodd" fill="#43383C" d="M609.482 245.218s-1.647 8.285-1.466 13.347c.031.863.504 1.756 1.27 2.396.766.639 1.729.947 2.585.826l5.245-.744c.811-.115 1.496-.498 1.951-1.09l.951-1.236c1.584-2.06.808-4.102-.207-6.982-1.049-2.977-1.813-6.409-1.813-6.409-4.681-3.125-8.516-.108-8.516-.108zM564.739 7.9s-9.725 13.108 3.303 24.331 11.117-.736 11.117-.736-4.784-21.463-14.42-23.595z"/><path fill-rule="evenodd" clip-rule="evenodd" fill="#43383C" d="M591.31 4.083s3.507 3.328 10.836 5.158c6.346 1.584 9.976 4.047 13.987 10.354 6.419 10.091 16.228 2.685 21.006 18.586 2.931 9.748-3.834 19.882-21.58 14.861-17.746-5.021-36.067 14.862-46.322-18.134-3.626-11.664 16.034-20.686 16.034-20.686l6.039-10.139z"/><path fill-rule="evenodd" clip-rule="evenodd" fill="#E8E8E8" d="M567.284 43.455l14.089-5.319 8.932-1.85 11.614 2.55a11.674 11.674 0 019.121 12.492l-2.35 25.117 3.416 20.906c-14.023 5.73-27.115 8.684-36.461.484l-7.014-22.833-1.347-31.547z"/><path fill-rule="evenodd" clip-rule="evenodd" fill="#EC6C6C" d="M577.553 26.843l3.195 13.743a4.713 4.713 0 007.887 2.305l1.155-1.128a6.033 6.033 0 001.487-6.287l-5.513-15.96-8.211 7.327z"/><path fill-rule="evenodd" clip-rule="evenodd" fill="#EC6C6C" d="M578.458 30.736s5.244-.398 7.365-2.657c0 0-1.854 6.363-6.227 7.551l-1.138-4.894z"/><path fill-rule="evenodd" clip-rule="evenodd" fill="#EC6C6C" d="M585.184 9.615a5.315 5.315 0 00-6.353-4.016l-9.966 2.247c-2.863.646-4.211 3.424-4.017 6.353.229 3.457 2.308 10.268 4.416 15.027 1.188 2.684 3.995 4.772 6.858 4.127 3.057-.689 11.559-5.665 11.211-11.328-.262-4.312-1.198-8.195-2.149-12.41z"/><path fill-rule="evenodd" clip-rule="evenodd" fill="#43383C" d="M598.83 12.109S591.337 2.102 585.77.937c-8.037-1.683-16.162-2.138-21.545 7.846 0 0 5.195 16.655 29.945 6.313l4.66-2.987z"/><ellipse transform="rotate(7.267 587.479 19.829)" fill-rule="evenodd" clip-rule="evenodd" fill="#EC6C6C" cx="587.345" cy="19.814" rx="3.614" ry="4.366"/><path fill-rule="evenodd" clip-rule="evenodd" fill="#43383C" d="M576.36 245.765l-6.034 5.966a9.277 9.277 0 01-5.285 2.597l-2.035.274a2.122 2.122 0 00.104 4.218l6.805.578 15.684-2.954s5.221-1.534.911-11.311l-10.15.632z"/><path fill-rule="evenodd" clip-rule="evenodd" fill="#E8E8E8" d="M567.284 43.455s-5.467.786-8.744 12.365-11.51 28.289-11.51 28.289-11.747 17.221 8.961 16.462c12.156-.446 21.293-32.898 21.293-32.898l1.508-11.054-11.508-13.164z"/><path fill-rule="evenodd" clip-rule="evenodd" fill="#EC6C6C" d="M553.711 99.991l-32.557 1.645-1.617-7.266 27.558-7.99c6.71-2.221 11.685 11.007 6.616 13.611zm83.807 22.916l-1.402 14.495s2.368 11.699 8.199 8.629 2.92-7.041 2.39-8.629c-.529-1.588 2.435-5.551-2.488-14.555l-6.699.06z"/><path fill-rule="evenodd" clip-rule="evenodd" fill="#E8E8E8" d="M606.256 40.784s15.654 9.618 20.771 18.441c5.118 8.824 21.338 24.433 17.287 33.834-4.051 9.401-13.58 9.707-19.58-1.917-6-11.623-18.479-19.917-18.479-19.917V40.784z"/><path fill-rule="evenodd" clip-rule="evenodd" fill="#7A70B3" d="M444.872 64.324h-31.336c-8.872 0-16.13-7.259-16.13-16.13 0-8.872 7.259-16.13 16.13-16.13h31.336c8.872 0 16.13 7.259 16.13 16.13 0 8.871-7.258 16.13-16.13 16.13z"/><path fill-rule="evenodd" clip-rule="evenodd" fill="#7A70B3" d="M447.263 62.806l17.947 6.561-5.594-16.444z"/><circle fill-rule="evenodd" clip-rule="evenodd" fill="#FFF" cx="414.449" cy="46.367" r="3.517"/><circle fill-rule="evenodd" clip-rule="evenodd" fill="#FFF" cx="428.304" cy="46.367" r="3.517"/><circle fill-rule="evenodd" clip-rule="evenodd" fill="#FFF" cx="442.159" cy="46.367" r="3.517"/><path fill-rule="evenodd" clip-rule="evenodd" fill="#43383C" d="M593.5 139.056h-9.794l4.527 34.939z"/><path fill-rule="evenodd" clip-rule="evenodd" fill="#D1D1D1" d="M571.307 83.713s-10.102-5.436-8.117-14.124c1.985-8.688 1.641-9.747 1.641-9.747s-7.781 11.879-2.699 21.706l5.082 9.827 4.093-7.662zm40.77-8.679l-6.401-8.188c.845 4.331-.503 8.509-4.588 12.497-.69 7.436 2.03 20.083-2.258 22.72l13.825-4.383-.211-17.241-.367-5.405z"/><path fill="#74804E" d="M321.851 196.637s6.781-40.7 33.883-66.247c0 0 14.354 53.893-22.236 67.449-2.647.981-11.647-1.202-11.647-1.202zm-6.844-46.596s-1.059-36.26-29.471-45.182c0 0-6.926 56.242 26.443 91.778l6.909 3.447-3.881-50.043z"/><path fill="#97A85E" d="M314.301 197.839s-12.353-70.513 19.94-101.031c0 0 17.069 51.537-11.131 103.276l-8.809-2.245z"/><path fill="#DCDBDB" d="M326.466 77.066h-96.971c-6.6 0-12-5.4-12-12V36.438c0-6.601 5.4-12 12-12h96.971c6.6 0 12 5.399 12 12v28.628c0 6.6-5.401 12-12 12z"/><path fill="#7A70B3" d="M284.54 46.968h-50.795c-2.871 0-5.221-2.349-5.221-5.22 0-2.871 2.35-5.22 5.221-5.22h50.795c2.871 0 5.221 2.349 5.221 5.22 0 2.872-2.35 5.22-5.221 5.22zm38.912 0h-20.354c-2.871 0-5.22-2.349-5.22-5.22 0-2.871 2.349-5.22 5.22-5.22h20.354c2.871 0 5.22 2.349 5.22 5.22 0 2.872-2.349 5.22-5.22 5.22z"/><path fill="#FFF" d="M287.15 65.61h-56.016a2.618 2.618 0 01-2.61-2.61 2.617 2.617 0 012.61-2.609h56.016A2.617 2.617 0 01289.76 63a2.617 2.617 0 01-2.61 2.61z"/><circle fill-rule="evenodd" clip-rule="evenodd" fill="#DCDBDB" cx="153.732" cy="39.805" r="28.588"/><path fill-rule="evenodd" clip-rule="evenodd" fill="#43383C" d="M201.358 97.752h16.137v26.949h-16.137zm26.909 32.409h-35.042a2.738 2.738 0 01-2.729-2.729 2.738 2.738 0 012.729-2.729h35.042c1.5 0 2.729 1.229 2.729 2.729a2.739 2.739 0 01-2.729 2.729z"/><ellipse fill="#E8E8E8" cx="169.233" cy="258.513" rx="169.233" ry="8.475"/><path fill-rule="evenodd" clip-rule="evenodd" fill="#8D777E" d="M93.114 254.139c.969-.376 1.452-1.394 1.08-2.272l-32.64-77.197c-.371-.879-1.459-1.288-2.428-.913-.969.376-1.452 1.394-1.08 2.272l32.641 77.196c.371.88 1.459 1.289 2.427.914z"/><path fill-rule="evenodd" clip-rule="evenodd" fill="#EC6C6C" d="M75.939 234.65l12.134 5.798 8.253-9.417-12.134-5.798z"/><path fill-rule="evenodd" clip-rule="evenodd" fill="#43383C" d="M96.229 256.775c-.263.388-.699.654-1.211.74s-4.444-1.408-4.896-1.675c-4.305-2.532-12.221-7.79-17.923-11.145-.888-.522-1.521-1.327-1.751-2.228a2.932 2.932 0 01.525-2.552l5.059-6.505 12.646 6.339s4.463 8.563 7.676 12.78c1.346 1.769 1.046 2.526-.125 4.246zm46.35-68.283l-48.078 47.537-15.693-8.792c11.43-22.918 28.875-50.974 44.793-50.422l18.978 11.677z"/><path fill-rule="evenodd" clip-rule="evenodd" fill="#EC6C6C" d="M153.12 249.263l11.459-7.038-3.424-12.045-11.459 7.038z"/><path fill-rule="evenodd" clip-rule="evenodd" fill="#43383C" d="M182.8 244.66c.171.436.145.946-.074 1.417-.217.471-3.672 2.871-4.148 3.094-4.521 2.121-13.332 5.683-19.321 8.492-.933.437-1.953.504-2.827.185a2.924 2.924 0 01-1.809-1.874l-2.509-7.85 12.376-6.853s9.586 1.155 14.881.889c2.218-.114 2.673.562 3.431 2.5z"/><path fill-rule="evenodd" clip-rule="evenodd" fill="#8D777E" d="M320.008 255.22c-1.389.524-2.956-.134-3.502-1.47l-47.841-117.267c-.545-1.336.14-2.845 1.529-3.369 1.389-.524 2.957.134 3.502 1.47l47.84 117.268c.545 1.336-.139 2.844-1.528 3.368z"/><path fill-rule="evenodd" clip-rule="evenodd" fill="#B99CA8" d="M4.095 258.03c-1.385-.536-2.032-2.103-1.447-3.497l51.307-122.408c.584-1.395 2.18-2.09 3.564-1.553 1.384.536 2.031 2.103 1.447 3.497L7.659 256.476c-.585 1.395-2.18 2.091-3.564 1.554z"/><path fill-rule="evenodd" clip-rule="evenodd" fill="#715F65" d="M186.251 266.814c-1.384-.535-2.011-2.154-1.399-3.614l53.634-128.171c.611-1.46 2.229-2.21 3.613-1.674 1.385.535 2.012 2.154 1.4 3.614L189.864 265.14c-.611 1.46-2.228 2.21-3.613 1.674z"/><path fill-rule="evenodd" clip-rule="evenodd" fill="#58494F" d="M54.672 144.312s-3.896 30.42 21.515 33.86c25.412 3.441 74.867 2.164 74.867 2.164s4.236-21.752-11.375-25.484c-19.729-4.717-30.012-7.059-30.012-7.059l-54.995-3.481z"/><path fill-rule="evenodd" clip-rule="evenodd" fill="#EC6C6C" d="M71.513 69.941l6.119-19.189 13.49 5.085-2.578 18.289c-4.029-4.563-10.143-5.12-17.031-4.185z"/><path fill-rule="evenodd" clip-rule="evenodd" fill="#D66262" d="M83.369 56.783s.532 6.546 5.983 11.611l.539-3.828.793-5.621c-2.77-.062-5.308-.585-7.315-2.162z"/><path fill="#EC6C6C" d="M74.905 41.24c1.818-8.994 2.469-10.524 10.373-12.047 8.008-.81 2.719 2.031 11.023 3.899 4.887 1.1 4.929 5.633 4.116 11.33-.283 1.988.621 3.853 2.37 6.044.477 1.377-1.785 2.375-2.441 2.965-.771.694-.18 7.392-2.071 8.525-5.188 3.11-13.677-.512-13.677-.512-9.125-4.737-3.955-23.21-3.955-23.21-.519-3.115-6.22 5.393-5.738 3.006z"/><path fill-rule="evenodd" clip-rule="evenodd" fill="#43383C" d="M85.154 45.328s-4.706 9.547-8.85 13.651c-2.255 2.233-4.671-.449-4.847-3.617-.348-6.312-4.859-11.916-2.223-20.946 1.352-4.627 12.069-7.085 20.21-7.783 9.448-.81 20.154 11.729 4.507 13.111l-4.844 8.85c-.707 1.293-2.622 1.097-3.053-.313l-.9-2.953z"/><path fill-rule="evenodd" clip-rule="evenodd" fill="#EC6C6C" d="M81.019 43.317c1.863-.572 3.969.896 4.699 3.273.731 2.38-.188 4.776-2.051 5.349-1.864.572-3.97-.896-4.7-3.275-.731-2.378.188-4.775 2.052-5.347z"/><path fill-rule="evenodd" clip-rule="evenodd" fill="#715F65" d="M135.538 126.956h50.478v3.205h-50.478z"/><path fill-rule="evenodd" clip-rule="evenodd" fill="#43383C" d="M281.44 136.213H43.64a3.034 3.034 0 01-3.025-3.026 3.034 3.034 0 013.025-3.026h237.8a3.034 3.034 0 013.025 3.026 3.034 3.034 0 01-3.025 3.026z"/><path fill="#E8E8E8" d="M326.653 260.131h-9.859c-12.659 0-22.921-10.262-22.921-22.92v-43.11h55.701v43.11c0 12.659-10.261 22.92-22.921 22.92z"/><path fill="#DCDBDB" d="M349.574 241.269v-43.43c-11.192 31.897-33.636 52.277-42.565 59.423 4.273 1.808 9.305 2.869 14.715 2.869 15.38 0 27.85-8.445 27.85-18.862z"/><path fill-rule="evenodd" clip-rule="evenodd" fill="#7A70B3" d="M111.399 101.427l-1.732 46.366s-23.974 7.515-55.988-1.11c-2.213-1.61-2.556-4.497-.484-9.032l-.56-30.724c-.13-7.098.671-14.195 2.552-21.04 2.346-8.531 6.62-17.834 14.219-19.189 7.912-1.412 12.119-.752 20.919 1.194 10.563 2.335 18.64 11.357 19.799 21.909l1.275 11.626z"/><path fill-rule="evenodd" clip-rule="evenodd" fill="#EC6C6C" d="M157.019 120.142s4.291-4.038 7.608-2.922c1.581.532 4.019.193 6.393 1.064 2.608.959 5.772 4.226 5.772 4.226s.543 3.397-2.393 4.462c-1.048.38-4.736-2.002-4.736-2.002-2.762 1.502-8 3.108-12.101 2.832l-7.669-.353-3.529-4.323 10.655-2.984z"/><path fill-rule="evenodd" clip-rule="evenodd" fill="#7A70B3" d="M106.387 80.063l20.741 32.387 26.32 3.434a4.726 4.726 0 014.114 4.686v7.989l-35.993 1.098-23.559-13.5 8.377-36.094z"/><path fill-rule="evenodd" clip-rule="evenodd" fill="#58494F" d="M151.489 175.766l13.219 58.66-16.255 7.704c-10.867-22.554-21.097-42.918-18.693-61.506l21.729-4.858z"/><path fill-rule="evenodd" clip-rule="evenodd" fill="#8D777E" d="M129.463 258.548c.969-.375 1.437-1.431 1.046-2.358l-34.352-81.435c-.391-.928-1.494-1.376-2.463-1.002-.969.375-1.438 1.432-1.047 2.359l34.352 81.434c.392.929 1.494 1.377 2.464 1.002zm-55.454-44.185H43.641a1.44 1.44 0 01-1.435-1.434 1.44 1.44 0 011.435-1.435h30.368c.789 0 1.434.646 1.434 1.435a1.44 1.44 0 01-1.434 1.434z"/><path fill-rule="evenodd" clip-rule="evenodd" fill="#8D777E" d="M57.272 258.548c-.969-.375-1.438-1.431-1.047-2.358l34.352-81.435c.392-.928 1.494-1.376 2.463-1.002h.001c.969.375 1.437 1.432 1.046 2.359l-34.352 81.434c-.39.929-1.494 1.377-2.463 1.002z"/><path fill-rule="evenodd" clip-rule="evenodd" fill="#8D777E" d="M110.144 214.363H77.622a1.44 1.44 0 01-1.436-1.434 1.44 1.44 0 011.436-1.435h32.521a1.44 1.44 0 011.436 1.435 1.44 1.44 0 01-1.435 1.434zm-87.006 43.371l-.156-.06c-.926-.358-1.373-1.367-.999-2.254l33.065-78.386c.373-.887 1.428-1.314 2.354-.957l.156.061c.926.358 1.373 1.367.999 2.254l-33.065 78.386c-.374.887-1.429 1.314-2.354.956z"/><path fill-rule="evenodd" clip-rule="evenodd" fill="#715F65" d="M105.14 188.718H47.234a8.383 8.383 0 010-16.765h57.905a8.382 8.382 0 11.001 16.765z"/><path fill-rule="evenodd" clip-rule="evenodd" fill="#675FA2" d="M110.615 122.429l-12.604-11.745v39.351s7.431.229 11.656-2.241c2.085-1.648 2.814-3.481.246-6.563l.702-18.802z"/><path fill-rule="evenodd" clip-rule="evenodd" fill="#43383C" d="M240.192 111.677h-70.316a5.161 5.161 0 01-5.156-5.391l2.049-45.968a5.162 5.162 0 015.156-4.931h70.316a5.16 5.16 0 015.156 5.391l-2.049 45.968a5.16 5.16 0 01-5.156 4.931z"/><path fill-rule="evenodd" clip-rule="evenodd" fill="#DCDBDB" d="M234.953 105.688h-59.504c-2.488 0-4.474-1.974-4.363-4.336l1.733-36.976c.104-2.219 2.027-3.967 4.363-3.967h59.504c2.488 0 4.475 1.974 4.363 4.337l-1.734 36.975c-.103 2.219-2.025 3.967-4.362 3.967z"/><path fill-rule="evenodd" clip-rule="evenodd" fill="#FFF" d="M215.895 96.149h-21.769c-6.121 0-11.131-5.009-11.131-11.13v-6.681c0-6.122 5.01-11.13 11.131-11.13h21.769c6.122 0 11.13 5.008 11.13 11.13v6.681c-.001 6.121-5.008 11.13-11.13 11.13z"/><path fill-rule="evenodd" clip-rule="evenodd" fill="#7A70B3" d="M190.495 89.232l6.883-11.901c.81-1.401 2.842-1.371 3.611.053l5.918 10.966 3.143-4.241a2.068 2.068 0 013.412.127l3.151 4.997h-26.118z"/><circle fill-rule="evenodd" clip-rule="evenodd" fill="#F6AD36" cx="211.672" cy="75.07" r="2.993"/></svg>